<svg xmlns="http://www.w3.org/2000/svg" width="33.437" height="17" viewBox="0 0 33.437 17">
    <g transform="translate(-1792.063 -1011.5)">
        <path class="activeColor"
            d="M5596.228,5227h-13.292a4,4,0,0,1-4-4v-4a4,4,0,0,1,4-4h13.292a9,9,0,0,0,0,12Z"
            transform="translate(-3786.873 -4201)" fill="#707070"></path>
        <g transform="translate(48 41)">
            <path class="activeColor"
                d="M4.886,15.371A8.022,8.022,0,1,1,8,16,8,8,0,0,1,4.886,15.371Zm3.647-.457a6.868,6.868,0,0,0,2.166-.525,6.928,6.928,0,0,0,1.812-1.123L8.533,9.287ZM4.124,13.749a6.9,6.9,0,0,0,3.343,1.164V9.288L3.489,13.265A7.013,7.013,0,0,0,4.124,13.749ZM1.612,10.7a6.96,6.96,0,0,0,.639,1.177,6.881,6.881,0,0,0,.484.635L6.713,8.533H1.087A6.868,6.868,0,0,0,1.612,10.7Zm11.653,1.812A6.928,6.928,0,0,0,14.388,10.7a6.868,6.868,0,0,0,.525-2.166H9.287ZM6.934,8A1.066,1.066,0,1,0,8,6.934,1.068,1.068,0,0,0,6.934,8ZM1.067,8q0,.212.013.423V7.578Q1.067,7.788,1.067,8Zm13.855.422q.013-.21.013-.422t-.013-.422ZM9.288,7.466h5.626a6.9,6.9,0,0,0-1.164-3.343,7.013,7.013,0,0,0-.484-.635Zm-2.576,0L2.735,3.489A6.908,6.908,0,0,0,1.087,7.466Zm1.821-.753,3.978-3.978a6.881,6.881,0,0,0-.635-.484A6.96,6.96,0,0,0,10.7,1.612a6.868,6.868,0,0,0-2.166-.525Zm-1.066,0V1.087A6.92,6.92,0,0,0,3.489,2.735Z"
                transform="translate(1761 971)" fill="#707070"></path>
            <path class="activeColor"
                d="M8,16a7.974,7.974,0,0,0,4.473-1.366,8.015,8.015,0,0,0,2.9-3.52,7.99,7.99,0,0,0-1.715-8.771,8.036,8.036,0,0,0-1.184-.977A8.01,8.01,0,0,0,1.366,3.527a7.994,7.994,0,0,0,0,8.946,8.015,8.015,0,0,0,3.52,2.9A7.943,7.943,0,0,0,8,16m.533-6.713,3.978,3.978A6.928,6.928,0,0,1,10.7,14.388a6.868,6.868,0,0,1-2.166.525V9.287m-1.066,0v5.626a6.9,6.9,0,0,1-3.343-1.164,7.015,7.015,0,0,1-.635-.484L7.466,9.288m-6.38-.755H6.713L2.735,12.511a6.882,6.882,0,0,1-.484-.635A6.96,6.96,0,0,1,1.612,10.7a6.868,6.868,0,0,1-.525-2.166m8.2,0h5.627a6.868,6.868,0,0,1-.525,2.166,6.928,6.928,0,0,1-1.123,1.812L9.287,8.533M8,6.934A1.066,1.066,0,1,1,6.934,8,1.068,1.068,0,0,1,8,6.934m-6.921.644v.845Q1.067,8.212,1.067,8t.013-.423m13.842,0q.013.21.013.422t-.013.422V7.578M13.265,3.489a7.015,7.015,0,0,1,.484.635,6.9,6.9,0,0,1,1.164,3.343H9.288l3.977-3.977m-10.53,0L6.712,7.466H1.087A6.92,6.92,0,0,1,2.735,3.489m5.8-2.4a6.868,6.868,0,0,1,2.166.525,6.96,6.96,0,0,1,1.177.639,6.882,6.882,0,0,1,.635.484L8.533,6.713V1.087m-1.066,0V6.712L3.489,2.735A6.909,6.909,0,0,1,7.466,1.087M8,16.5a8.477,8.477,0,0,1-6.01-2.49A8.532,8.532,0,0,1,.952,12.753a8.51,8.51,0,0,1,2.3-11.8,8.494,8.494,0,0,1,9.506,0,8.515,8.515,0,0,1,3.079,3.739,8.494,8.494,0,0,1-.783,8.062,8.515,8.515,0,0,1-3.739,3.079A8.441,8.441,0,0,1,8,16.5Zm1.033-6.006v3.857a6.38,6.38,0,0,0,1.471-.424,6.458,6.458,0,0,0,1.092-.593q.082-.056.163-.114ZM4.241,13.221q.081.058.163.114a6.406,6.406,0,0,0,2.562,1.016V10.5ZM1.649,9.033A6.381,6.381,0,0,0,2.072,10.5,6.458,6.458,0,0,0,2.665,11.6q.055.082.114.163L5.506,9.033Zm8.846,0,2.727,2.727q.058-.081.114-.163a6.457,6.457,0,0,0,.593-1.092,6.379,6.379,0,0,0,.424-1.471ZM8,7.434A.566.566,0,1,0,8.567,8,.567.567,0,0,0,8,7.434ZM10.5,6.966h3.856A6.405,6.405,0,0,0,13.335,4.4q-.056-.082-.114-.163Zm-8.846,0H5.505L2.779,4.24q-.058.081-.114.163A6.406,6.406,0,0,0,1.649,6.966ZM9.033,1.649V5.506L11.76,2.779q-.081-.058-.163-.114A6.459,6.459,0,0,0,10.5,2.072,6.38,6.38,0,0,0,9.033,1.649ZM4.24,2.779,6.966,5.505V1.649A6.406,6.406,0,0,0,4.4,2.665Q4.322,2.721,4.24,2.779Z"
                transform="translate(1761 971)" fill="#707070"></path>
        </g>
    </g>
</svg>