<svg width="66" height="25" viewBox="0 0 66 25" fill="none" xmlns="http://www.w3.org/2000/svg">
<path d="M1.13823 23.0503L3.82247 21.9252C4.36227 21.699 4.82984 21.3296 5.17484 20.857L6.17384 19.4884C7.18169 18.1077 9.30648 18.3306 10.0114 19.8909V19.8909C10.2565 20.4334 10.7077 20.856 11.265 21.0649L11.7346 21.241C12.2572 21.437 12.8444 21.2316 13.1299 20.753L13.5905 19.9807C14.1861 18.9823 15.6638 19.0818 16.124 20.1514V20.1514C16.6431 21.3579 18.3778 21.2837 18.7872 20.0375L19.2247 18.706L20.5563 14.0455L21.2221 11.7153L21.5549 10.5502V10.5502C21.6769 10.1235 22.2552 10.0606 22.4675 10.4509L23.9266 13.1337C24.0152 13.2967 24.1293 13.4446 24.2644 13.5717L24.7813 14.0582C25.0936 14.3521 25.3653 14.6863 25.5894 15.0519L26.3144 16.2347C26.4872 16.5168 26.7606 16.7229 27.0792 16.8114V16.8114C27.5495 16.942 28.0528 16.7994 28.384 16.4418L28.4245 16.3981C28.5956 16.2133 28.7136 15.9858 28.7662 15.7394L30.0174 9.87705L30.6832 6.75766L31.1387 4.89976V4.89976C31.3178 3.93747 32.6201 3.76109 33.052 4.64064L35.2338 9.08357C35.4422 9.5079 35.7758 9.85825 36.1894 10.0872V10.0872C36.7248 10.3836 37.3557 10.4554 37.9433 10.2868L39.3982 9.86916C39.7081 9.78022 40.0088 9.66231 40.2964 9.51698L40.7448 9.29045C42.2401 8.53489 44.0385 8.70808 45.3655 9.73546V9.73546L47.2347 11.2995C48.1205 12.0407 49.4244 11.984 50.2396 11.1688L50.3423 11.0661C50.3883 11.0201 50.4391 10.9793 50.4939 10.9444V10.9444C50.8535 10.7151 51.3255 10.7717 51.6218 11.0795L52.1077 11.5844C52.1911 11.6711 52.2877 11.7441 52.3939 11.8006V11.8006C52.9172 12.0792 53.566 11.9103 53.8859 11.4124L56.5474 7.2692C56.6609 7.09248 56.8033 6.93614 56.9687 6.80669V6.80669C57.7382 6.20452 58.8421 6.29472 59.5061 7.01402L60.0128 7.5629L60.5859 8.13607C60.6706 8.22075 60.7668 8.29301 60.8718 8.35071V8.35071C61.5345 8.71522 62.3658 8.4221 62.6518 7.72307L63.3767 5.951L64.9886 1.88621" stroke="black" stroke-width="2" stroke-linecap="round"/>
</svg>
