<svg width="35" height="35" viewBox="0 0 39 39" fill="none" xmlns="http://www.w3.org/2000/svg">
<path d="M6.8252 19.0129C6.8252 21.1878 8.51848 22.9869 10.6895 23.1184L18.5987 23.5978C18.8814 23.6149 19.1531 23.7138 19.3807 23.8824L25.3618 28.3128C26.9705 29.5044 29.2502 28.3561 29.2502 26.3542V11.5198C29.2502 9.50702 26.9487 8.36162 25.3429 9.57529L19.3033 14.1403C19.0735 14.314 18.7975 14.4159 18.5099 14.4334L10.6895 14.9073C8.51848 15.0389 6.8252 16.8379 6.8252 19.0129Z" fill="#4A4A4A"/>
<path d="M12.9189 25.6955V29.8816C12.9189 31.283 14.055 32.4191 15.4565 32.4191C16.7432 32.4191 17.8263 31.456 17.9766 30.1781L18.4407 26.2333L18.1414 26.012L12.9189 25.6955Z" fill="#4A4A4A"/>
<path d="M34.1252 17.0628C34.1252 16.2551 33.4704 15.6003 32.6627 15.6003C31.855 15.6003 31.2002 16.2551 31.2002 17.0628V21.9378C31.2002 22.7456 31.855 23.4003 32.6627 23.4003C33.4704 23.4003 34.1252 22.7456 34.1252 21.9378V17.0628Z" fill="#4A4A4A"/>
</svg>
